<?xml version="1.0" encoding="UTF-8" standalone="no"?>
<svg
   xmlns:dc="http://purl.org/dc/elements/1.1/"
   xmlns:cc="http://creativecommons.org/ns#"
   xmlns:rdf="http://www.w3.org/1999/02/22-rdf-syntax-ns#"
   xmlns:svg="http://www.w3.org/2000/svg"
   xmlns="http://www.w3.org/2000/svg"
   xmlns:sodipodi="http://sodipodi.sourceforge.net/DTD/sodipodi-0.dtd"
   xmlns:inkscape="http://www.inkscape.org/namespaces/inkscape"
   sodipodi:docname="logo-osvedomitel.svg"
   inkscape:version="1.0beta2 (2b71d25, 2019-12-03)"
   width="67.309802"
   height="54.209802"
   viewBox="0 0 673.09802 542.09802"
   version="1.1"
   id="SVGRoot">
  <defs
     id="defs10">
    <inkscape:path-effect
       css_properties=""
       attributes=""
       is_visible="true"
       lpeversion="1"
       id="path-effect892"
       allow_transforms="false"
       method="bsplinespiro"
       linkeditem="#path27"
       effect="clone_original" />
    <inkscape:path-effect
       css_properties=""
       attributes=""
       is_visible="true"
       lpeversion="1"
       id="path-effect878"
       allow_transforms="false"
       method="bsplinespiro"
       linkeditem="#path27"
       effect="clone_original" />
    <filter
       height="1.02704"
       y="-0.01352"
       width="1.0215745"
       x="-0.010787234"
       id="filter898"
       style="color-interpolation-filters:sRGB"
       inkscape:collect="always">
      <feGaussianBlur
         id="feGaussianBlur900"
         stdDeviation="2.9575"
         inkscape:collect="always" />
    </filter>
  </defs>
  <sodipodi:namedview
     inkscape:guide-bbox="true"
     showguides="true"
     inkscape:window-maximized="0"
     inkscape:window-y="23"
     inkscape:window-x="0"
     inkscape:window-height="880"
     inkscape:window-width="1600"
     showgrid="false"
     inkscape:document-rotation="0"
     inkscape:current-layer="text25"
     inkscape:document-units="px"
     inkscape:cy="285.55216"
     inkscape:cx="295.4422"
     inkscape:zoom="0.57754677"
     inkscape:pageshadow="2"
     inkscape:pageopacity="0"
     borderopacity="0"
     bordercolor="#ffffff"
     pagecolor="#7440ab"
     id="base" />
  <metadata
     id="metadata13">
    <rdf:RDF>
      <cc:Work
         rdf:about="">
        <dc:format>image/svg+xml</dc:format>
        <dc:type
           rdf:resource="http://purl.org/dc/dcmitype/StillImage" />
        <dc:title></dc:title>
      </cc:Work>
    </rdf:RDF>
  </metadata>
  <g
     transform="translate(-158.91691,-219.02213)"
     id="layer1"
     inkscape:groupmode="layer"
     inkscape:label="Layer 1">
    <g
       style="font-style:italic;font-weight:600;font-size:1000px;line-height:1.25;font-family:Literata;-inkscape-font-specification:'Literata Semi-Bold Italic'"
       id="text25"
       aria-label="ѫ">
      <g
         transform="translate(438.05976,261.45069)"
         id="g904">
        <path
           style="fill:#000000;fill-opacity:1;filter:url(#filter898)"
           inkscape:connector-curvature="0"
           id="path896"
           d="m 310.85715,15.571442 -57,15 -95,127.999998 q 24,34 49,75 25,40 50,85 26,47 38,64 12,17 21,17 7,0 16,-6 10,-6 25,-20 l 29,35 q -29,39 -59,62 -29,22 -52,22 -14,0 -28,-8 -13,-8 -29,-30 -15,-23 -39,-64 -26,-48 -48,-84 -21,-37 -39,-65 l -18,28 -14.000003,209 h -101 l 15,-222 q -56,33 -87.999997,55 -32,22 -45,39 -13,16 -13,31 0,15 17,23 l 25,13 q -2,33 -23,54 -21,21 -53,21 -29,0 -48,-20 -18,-20 -18,-50 0,-27 11,-50 12,-24 38,-49 27,-25 70,-55 32,-21 56,-36 23.999997,-15 48.999997,-28 l -96.999997,-170.999998 -58,-17 13,-49 h 503 z M 56.857147,192.57144 h 5 L 184.85715,28.571442 H -33.142853 Z" />
        <path
           d="m 302.85715,5.5714417 -57,15.0000003 -95,127.999998 q 24,34 49,75 25,40 50,85 26,47 38,64 12,17 21,17 7,0 16,-6 10,-6 25,-20 l 29,35 q -29,39 -59,62 -29,22 -52,22 -14,0 -28,-8 -13,-8 -29,-30 -15,-23 -39,-64 -26,-48 -48,-84 -21,-37 -39.000003,-65 l -18,28 -14,209 h -101 l 15,-222 q -56,33 -87.999997,55 -32,22 -45,39 -13,16 -13,31 0,15 17,23 l 25,13 q -2,33 -23,54 -21,21 -53,21 -29,0 -48,-20 -18,-20 -18,-50 0,-27 11,-50 12,-24 38,-49 27,-25 70,-55 32,-21 56,-36 23.999997,-15 48.999997,-28 l -96.999997,-170.999998 -58,-17.0000003 13,-48.9999997 h 503 z M 48.857147,182.57144 h 5 L 176.85715,18.571442 H -41.142853 Z"
           id="path27"
           inkscape:connector-curvature="0"
           style="fill:#ffffff;fill-opacity:1" />
      </g>
    </g>
  </g>
</svg>
